<svg width="76" height="76" viewBox="0 0 76 76" fill="none" xmlns="http://www.w3.org/2000/svg">
<path opacity="0.06" d="M55.0286 0.265625H21.2527C9.70499 0.265625 0.34375 9.62687 0.34375 21.1745V54.9505C0.34375 66.4981 9.70499 75.8594 21.2527 75.8594H55.0286C66.5763 75.8594 75.9375 66.4981 75.9375 54.9505V21.1745C75.9375 9.62687 66.5763 0.265625 55.0286 0.265625Z" fill="#FF6F35"/>
<path d="M38.1407 63.8029C52.3567 63.8029 63.8811 52.2786 63.8811 38.0625C63.8811 23.8465 52.3567 12.3221 38.1407 12.3221C23.9246 12.3221 12.4003 23.8465 12.4003 38.0625C12.4003 52.2786 23.9246 63.8029 38.1407 63.8029Z" fill="#FFCD1D"/>
<path fill-rule="evenodd" clip-rule="evenodd" d="M38.1406 20.6384C38.8068 20.6384 39.3469 21.1785 39.3469 21.8447V54.2804C39.3469 54.9466 38.8068 55.4867 38.1406 55.4867C37.4744 55.4867 36.9343 54.9466 36.9343 54.2804V21.8447C36.9343 21.1785 37.4744 20.6384 38.1406 20.6384Z" fill="white"/>
<path fill-rule="evenodd" clip-rule="evenodd" d="M29.953 28.4004C31.147 27.2065 32.7663 26.5358 34.4548 26.5358H45.5124C46.1786 26.5358 46.7187 27.0758 46.7187 27.742C46.7187 28.4083 46.1786 28.9483 45.5124 28.9483H34.4548C33.4061 28.9483 32.4004 29.3649 31.6589 30.1064L31.6589 30.1065C30.9174 30.8479 30.5008 31.8535 30.5008 32.9022C30.5008 33.9508 30.9174 34.9565 31.6589 35.698C31.6589 35.6981 31.6589 35.6981 31.6589 35.6981M46.3283 38.7209C47.5223 39.9148 48.193 41.5342 48.193 43.2227C48.193 44.9111 47.5223 46.5305 46.3283 47.7244C45.1343 48.9184 43.5149 49.5891 41.8265 49.5891H29.2945C28.6283 49.5891 28.0883 49.0491 28.0883 48.3828C28.0883 47.7166 28.6283 47.1766 29.2945 47.1766H41.8265C42.8751 47.1766 43.8808 46.76 44.6223 46.0185L44.6224 46.0184C45.3639 45.277 45.7804 44.2713 45.7804 43.2227C45.7804 42.1739 45.3638 41.1683 44.6224 40.4268L44.6223 40.4268C43.8808 39.6853 42.8751 39.2687 41.8265 39.2687H34.4548C32.7663 39.2687 31.1469 38.5979 29.953 37.4041L29.953 37.404C28.759 36.21 28.0883 34.5907 28.0883 32.9022C28.0883 31.2138 28.759 29.5944 29.953 28.4005M46.3283 38.7209C45.1343 37.5269 43.5149 36.8562 41.8265 36.8562H34.4548C33.4062 36.8562 32.4005 36.4396 31.6589 35.6981" fill="white"/>
</svg>
