<?xml version="1.0" encoding="utf-8"?><!-- Uploaded to: SVG Repo, www.svgrepo.com, Generator: SVG Repo Mixer Tools -->
<svg width="800px" height="800px" viewBox="0 -2.2 19.438 19.438" xmlns="http://www.w3.org/2000/svg">
  <path id="Path_10" data-name="Path 10" d="M346.729,827.961l-1.35,5.437c-.7,1.993-1.189,2.6-2.656,2.6h-8.5c-1.467,0-2.05-.463-2.656-2.6l-1.35-5.437a1.5,1.5,0,0,1,.037-2.992h2.078l3.74-4,.895.841-2.98,3.157h9.444l-3.452-3.157.9-.841,4.34,4h1.478a1.5,1.5,0,0,1,.037,2.992Zm-14.1,5.469a1.677,1.677,0,0,0,1.594,1.561h8.5c.88,0,1.382-.605,1.594-1.561l1.295-5.443H331.335Zm13.039-7.444h-14.4c-.733,0-1.328.229-1.328.512s.595.511,1.328.511h14.4c.734,0,1.328-.229,1.328-.511S346.4,825.986,345.668,825.986Z" transform="translate(-328.754 -820.971)" fill="#444"/>
</svg>